<svg xmlns="http://www.w3.org/2000/svg" xmlns:xlink="http://www.w3.org/1999/xlink" width="64" zoomAndPan="magnify" viewBox="0 0 48 48" height="64" preserveAspectRatio="xMidYMid meet" version="1.0"><defs><clipPath id="9522a671d2"><path d="M 0.488281 0 L 47.507812 0 L 47.507812 47.019531 L 0.488281 47.019531 Z M 0.488281 0 " clip-rule="nonzero"/></clipPath></defs><g clip-path="url(#9522a671d2)"><path fill="#ffffff" d="M 0.488281 0 L 47.511719 0 L 47.511719 47.019531 L 0.488281 47.019531 Z M 0.488281 0 " fill-opacity="1" fill-rule="nonzero"/><path fill="#ffffff" d="M 0.488281 0 L 47.511719 0 L 47.511719 47.019531 L 0.488281 47.019531 Z M 0.488281 0 " fill-opacity="1" fill-rule="nonzero"/></g><path fill="#0d0000" d="M 29.886719 33.90625 C 21.09375 33.878906 21.109375 33.898438 20.042969 33.957031 C 18.710938 34.035156 19.457031 33.34375 19.523438 33.328125 C 19.703125 33.28125 23.742188 33.699219 20.566406 28.160156 C 20.21875 27.554688 20.054688 27.554688 11.882812 27.757812 C 11 27.78125 9.011719 32.078125 10.769531 32.933594 C 10.828125 32.960938 13.59375 33.59375 12.222656 33.917969 C 11.800781 34.019531 11.796875 33.914062 6.8125 33.910156 C 5.246094 33.910156 7.035156 32.980469 7.109375 32.941406 C 8.664062 32.132812 12.269531 21.566406 15.742188 13.6875 C 15.785156 13.589844 16.152344 12.757812 16.957031 13.148438 C 17.617188 13.464844 24.613281 31.578125 26 32.28125 C 26.902344 32.742188 29.558594 32.710938 30.988281 32.289062 C 32.234375 31.921875 32.472656 31.632812 33.191406 32.699219 C 33.890625 33.734375 30.167969 33.890625 29.886719 33.90625 Z M 29.886719 33.90625 " fill-opacity="1" fill-rule="evenodd"/><path fill="#000000" d="M 31.582031 13.324219 C 43.671875 14.761719 39.347656 30.621094 37.78125 28.960938 C 37.632812 28.804688 36.1875 27.269531 36.246094 26.722656 C 36.25 26.703125 38.226562 19.179688 33.191406 15.8125 C 30.457031 13.988281 24.597656 14.390625 25.421875 15.679688 C 25.570312 15.914062 38.929688 32.769531 39.277344 33.144531 C 39.695312 33.601562 39.789062 33.957031 39.191406 33.910156 C 35.714844 33.632812 35.851562 32.910156 29.199219 24.5625 C 20.65625 13.84375 19.761719 13.359375 20.636719 13.261719 C 22.644531 13.03125 30.703125 13.296875 31.582031 13.324219 Z M 31.582031 13.324219 " fill-opacity="1" fill-rule="evenodd"/><path fill="#ffffff" d="M 18.636719 26.4375 C 12.972656 26.453125 12.160156 26.53125 12.101562 26.183594 C 12.019531 25.707031 12.140625 25.726562 14.273438 20.566406 C 15.347656 17.972656 15.65625 16.65625 16.167969 17.933594 C 19.15625 25.382812 19.457031 25.242188 19.644531 25.914062 C 19.84375 26.636719 19.398438 26.402344 18.636719 26.4375 Z M 18.636719 26.4375 " fill-opacity="1" fill-rule="evenodd"/></svg>